<svg width="25" height="23" viewBox="0 0 25 23"><g fill="#FFF" fill-rule="evenodd"><path d="M19.976 8.716a.625.625 0 01-1.247.087C18.418 4.33 14.537.958 10.06 1.269a8.116 8.116 0 00-6.335 12.385c.096.154.12.342.066.514l-.033.084-1.812 3.8 3.805-1.81a.626.626 0 01.518-.009l.08.042c.436.27.897.5 1.376.685a.624.624 0 11-.45 1.164 9.552 9.552 0 01-.969-.437l-.319-.174-5.094 2.424a.625.625 0 01-.864-.756l.03-.076 2.427-5.09-.148-.269A9.365 9.365 0 011.3 10.341l-.028-.326C.912 4.855 4.808.381 9.973.023c5.166-.359 9.644 3.534 10.003 8.693zm-5.601.043A5.622 5.622 0 0120 14.378a5.622 5.622 0 01-5.625 5.619 5.622 5.622 0 01-5.625-5.62 5.622 5.622 0 015.625-5.618zm0 1.248A4.372 4.372 0 0010 14.377a4.372 4.372 0 004.375 4.371 4.372 4.372 0 004.375-4.37 4.372 4.372 0 00-4.375-4.37zm0 1.25c.316 0 .578.234.62.539l.005.084v1.873h1.875a.625.625 0 01.085 1.243l-.085.006H15v1.873a.625.625 0 01-1.244.085l-.006-.085v-1.873h-1.875a.625.625 0 01-.085-1.243l.085-.006h1.875V11.88c0-.344.28-.624.625-.624z" transform="translate(.429)"></path></g></svg>