<svg width="25" height="23" viewBox="0 0 25 23" fill="none" xmlns="http://www.w3.org/2000/svg">
<path d="M5.59092 10.2626C5.55198 10.2629 5.51343 10.2549 5.4779 10.239L4.09908 9.63525C4.04993 9.61381 4.00813 9.57856 3.97882 9.53382C3.94951 9.48909 3.93396 9.43681 3.93408 9.38341V6.97742C3.93471 6.93268 3.94637 6.88877 3.96805 6.84956C3.98973 6.81036 4.02075 6.77705 4.0584 6.75256C4.10324 6.72288 4.15598 6.70722 4.20984 6.70758C4.24871 6.70672 4.2873 6.7144 4.32286 6.73007L5.70167 7.3192C5.75134 7.34051 5.79364 7.37581 5.82337 7.42077C5.85309 7.46573 5.86894 7.51836 5.86894 7.57217V9.98716C5.86799 10.032 5.85607 10.0759 5.83421 10.115C5.81235 10.1542 5.78121 10.1875 5.74349 10.212C5.69864 10.2417 5.6459 10.2574 5.59204 10.257" fill="#FF5100"/>
<path d="M4.21211 6.9774L5.59093 7.56765V9.98714L4.21211 9.38339V6.9774ZM4.21211 6.42761C4.06563 6.42791 3.92523 6.48593 3.82165 6.58897C3.71808 6.69201 3.65975 6.83168 3.65945 6.9774V9.38339C3.6595 9.49012 3.69072 9.59455 3.74931 9.68397C3.80789 9.77338 3.89133 9.84395 3.98947 9.88708L5.36827 10.4908C5.45241 10.528 5.54457 10.5436 5.63633 10.5362C5.72809 10.5289 5.81655 10.4988 5.89363 10.4487C5.97071 10.3987 6.03395 10.3302 6.07761 10.2496C6.12127 10.1689 6.14394 10.0787 6.14357 9.98714V7.56765C6.14327 7.45965 6.11095 7.35414 6.05064 7.26435C5.99033 7.17455 5.9047 7.10445 5.80452 7.06284L4.42685 6.47259C4.35765 6.44275 4.283 6.42744 4.20759 6.42761" fill="white"/>
<path d="M3.86526 6.29389C3.82642 6.29434 3.78792 6.28667 3.75224 6.27141L1.00139 5.0954C0.951714 5.0741 0.909393 5.03879 0.879658 4.99384C0.849923 4.94888 0.834076 4.89625 0.834076 4.84243C0.834076 4.78861 0.849923 4.73597 0.879658 4.69102C0.909393 4.64606 0.951714 4.61076 1.00139 4.58946L11.0385 0.298018C11.0741 0.282752 11.1126 0.27509 11.1515 0.275531C11.1903 0.275253 11.2288 0.282908 11.2645 0.298018L14.0153 1.47291C14.0651 1.49398 14.1075 1.52915 14.1373 1.57402C14.1672 1.6189 14.1831 1.67151 14.1831 1.72531C14.1831 1.77911 14.1672 1.83172 14.1373 1.8766C14.1075 1.92148 14.0651 1.95664 14.0153 1.97772L3.97828 6.27141C3.94255 6.28652 3.90408 6.29417 3.86526 6.29389Z" fill="#FF6000"/>
<path d="M11.1503 0.550912L13.9011 1.7258L3.86406 6.01837L1.11321 4.84236L11.1503 0.550912ZM11.1503 3.75757e-06C11.0752 -4.77903e-05 11.001 0.015263 10.9321 0.0449784L0.895091 4.33642C0.795317 4.37863 0.71023 4.4491 0.650418 4.53906C0.590607 4.62902 0.558716 4.7345 0.558716 4.84236C0.558716 4.95021 0.590607 5.05568 0.650418 5.14564C0.71023 5.2356 0.795317 5.30608 0.895091 5.34829L3.64593 6.52543C3.71498 6.5551 3.7894 6.5704 3.86462 6.5704C3.93984 6.5704 4.01425 6.5551 4.0833 6.52543L14.1204 2.23173C14.2201 2.18953 14.3052 2.11906 14.365 2.02909C14.4249 1.93913 14.4567 1.83366 14.4567 1.7258C14.4567 1.61794 14.4249 1.51247 14.365 1.42251C14.3052 1.33255 14.2201 1.26208 14.1204 1.21987L11.3695 0.0449784C11.3008 0.0150446 11.2265 -0.000275781 11.1514 3.75757e-06" fill="white"/>
<path d="M6.01813 7.21463C5.9793 7.2149 5.94084 7.20725 5.90511 7.19214L4.70826 6.67609C4.6585 6.65502 4.61607 6.61985 4.58625 6.57497C4.55642 6.53009 4.54053 6.47749 4.54053 6.42369C4.54053 6.36989 4.55642 6.31728 4.58625 6.2724C4.61607 6.22752 4.6585 6.19235 4.70826 6.17128L14.7453 1.87871C14.7799 1.86386 14.8172 1.8562 14.8549 1.8562C14.8927 1.8562 14.93 1.86386 14.9646 1.87871L16.1693 2.39476C16.2191 2.41584 16.2615 2.451 16.2914 2.49588C16.3212 2.54076 16.3371 2.59337 16.3371 2.64717C16.3371 2.70097 16.3212 2.75358 16.2914 2.79846C16.2615 2.84334 16.2191 2.8785 16.1693 2.89957L6.13227 7.19214C6.09655 7.20725 6.05808 7.2149 6.01926 7.21463" fill="#FF6000"/>
<path d="M14.8505 2.1317L16.0553 2.64662L6.0182 6.93919L4.81345 6.42314L14.8505 2.1317ZM14.8505 1.58191C14.7754 1.58163 14.7011 1.59695 14.6324 1.62688L4.59532 5.91833C4.49554 5.96053 4.41046 6.03101 4.35064 6.12097C4.29083 6.21093 4.25894 6.3164 4.25894 6.42426C4.25894 6.53212 4.29083 6.63759 4.35064 6.72755C4.41046 6.81751 4.49554 6.88798 4.59532 6.93019L5.80008 7.44512C5.86894 7.47476 5.94317 7.49006 6.0182 7.49006C6.09323 7.49006 6.16747 7.47476 6.23633 7.44512L16.2734 3.15368C16.3732 3.11147 16.4583 3.041 16.5181 2.95104C16.5779 2.86108 16.6098 2.75561 16.6098 2.64775C16.6098 2.53989 16.5779 2.43441 16.5181 2.34445C16.4583 2.25449 16.3732 2.18402 16.2734 2.14181L15.0686 1.62688C14.9999 1.59695 14.9256 1.58163 14.8505 1.58191Z" fill="white"/>
<path d="M11.1503 9.40923C11.1115 9.40967 11.073 9.40201 11.0373 9.38675L6.85567 7.59687C6.80599 7.57557 6.76367 7.54026 6.73394 7.49531C6.7042 7.45035 6.68835 7.39772 6.68835 7.3439C6.68835 7.29009 6.7042 7.23744 6.73394 7.19249C6.76367 7.14753 6.80599 7.11223 6.85567 7.09093L16.8939 2.79949C16.9285 2.78464 16.9658 2.77698 17.0035 2.77698C17.0412 2.77698 17.0785 2.78464 17.1131 2.79949L21.2948 4.58937C21.3444 4.61067 21.3868 4.64597 21.4165 4.69093C21.4462 4.73588 21.4621 4.78852 21.4621 4.84234C21.4621 4.89615 21.4462 4.94879 21.4165 4.99375C21.3868 5.0387 21.3444 5.07401 21.2948 5.09531L11.2633 9.38675C11.2276 9.40186 11.1891 9.40951 11.1503 9.40923Z" fill="#FF6000"/>
<path d="M17.0046 3.05252L20.6279 4.6018C20.6748 4.6222 20.7148 4.65578 20.7428 4.69841C20.7709 4.74105 20.7858 4.79089 20.7858 4.84184C20.7858 4.89279 20.7709 4.94263 20.7428 4.98527C20.7148 5.0279 20.6748 5.06147 20.6279 5.08187L11.1503 9.13272L6.96866 7.34284L17.0068 3.05139L17.0046 3.05252ZM17.0068 2.50049C16.9318 2.50075 16.8577 2.51605 16.7887 2.54546L6.75053 6.83803C6.65076 6.88024 6.56567 6.95071 6.50586 7.04067C6.44604 7.13063 6.41415 7.23611 6.41415 7.34396C6.41415 7.45182 6.44604 7.55729 6.50586 7.64725C6.56567 7.73721 6.65076 7.80769 6.75053 7.8499L10.9322 9.63978C11.0012 9.66945 11.0756 9.68475 11.1509 9.68475C11.2261 9.68475 11.3005 9.66945 11.3695 9.63978L21.4066 5.34721C21.5064 5.305 21.5915 5.23453 21.6513 5.14457C21.7111 5.05461 21.743 4.94913 21.743 4.84128C21.743 4.73342 21.7111 4.62794 21.6513 4.53798C21.5915 4.44802 21.5064 4.37755 21.4066 4.33534L17.225 2.54546C17.156 2.51605 17.0818 2.50075 17.0068 2.50049Z" fill="white"/>
<path d="M11.5266 22.7243C11.4903 22.7244 11.4543 22.7174 11.4207 22.7037C11.3871 22.69 11.3566 22.6698 11.3309 22.6443C11.3051 22.6188 11.2847 22.5885 11.2708 22.5552C11.2569 22.5218 11.2497 22.486 11.2497 22.4499V9.78472C11.2495 9.731 11.2652 9.67842 11.295 9.6336C11.3248 9.58879 11.3672 9.55374 11.417 9.53288L21.6461 5.15824C21.6819 5.14313 21.7203 5.13547 21.7592 5.13575C21.8325 5.13605 21.9028 5.16516 21.9546 5.21675C22.0065 5.26834 22.0358 5.33824 22.0361 5.4112V18.0753C22.0362 18.1291 22.0204 18.1818 21.9907 18.2268C21.9609 18.2718 21.9185 18.3071 21.8688 18.3283L11.6385 22.7029C11.6027 22.7178 11.5642 22.7251 11.5255 22.7243" fill="#FF6000"/>
<path d="M21.7558 5.61473V18.0753L11.5267 22.45V9.78475L21.5603 5.49443L21.7558 5.61473ZM21.7558 4.86145C21.6809 4.86154 21.6068 4.87645 21.5377 4.9053L11.3085 9.27994C11.2084 9.32155 11.1227 9.39164 11.0624 9.48144C11.0021 9.57124 10.9698 9.67675 10.9695 9.78475V22.45C10.9693 22.5411 10.9918 22.6308 11.0352 22.711C11.0785 22.7913 11.1412 22.8595 11.2177 22.9096C11.2942 22.9597 11.382 22.99 11.4732 22.9979C11.5645 23.0058 11.6562 22.991 11.7403 22.9548L21.9694 18.5813C22.0697 18.5394 22.1554 18.4692 22.2157 18.3792C22.276 18.2892 22.3083 18.1835 22.3085 18.0753V5.41123C22.3086 5.33899 22.2945 5.26743 22.2667 5.20066C22.239 5.13389 22.1983 5.07323 22.147 5.02215C22.0956 4.97107 22.0346 4.93057 21.9675 4.90299C21.9004 4.87542 21.8285 4.8613 21.7558 4.86145Z" fill="white"/>
<path d="M10.7774 22.7243C10.7386 22.7249 10.7001 22.7177 10.6643 22.7029L0.436277 18.3283C0.386519 18.3071 0.344132 18.2718 0.314389 18.2268C0.284645 18.1818 0.268863 18.1291 0.269014 18.0753V5.41121C0.269311 5.33824 0.298589 5.26835 0.350452 5.21675C0.402315 5.16516 0.472569 5.13605 0.545914 5.13575C0.584739 5.13544 0.623212 5.1431 0.658931 5.15824L3.57816 6.40396C3.62783 6.42526 3.67014 6.46057 3.69987 6.50553C3.72959 6.55048 3.74543 6.60311 3.74542 6.65692V9.62732C3.74549 9.64635 3.75107 9.66495 3.7615 9.6809C3.77192 9.69685 3.78674 9.70948 3.8042 9.71726L5.9323 10.6482C5.9447 10.6538 5.95825 10.6565 5.97187 10.656C5.99155 10.6557 6.01074 10.6499 6.02725 10.6392C6.04027 10.6303 6.0509 10.6184 6.05819 10.6045C6.06549 10.5906 6.06922 10.5751 6.06906 10.5594V7.88803C6.06991 7.8432 6.08178 7.79927 6.10365 7.76007C6.12552 7.72087 6.15672 7.6876 6.19451 7.66317C6.23926 7.63316 6.29198 7.61711 6.34595 7.61708C6.38477 7.6168 6.42324 7.62445 6.45897 7.63956L10.8949 9.53737C10.9447 9.55824 10.9871 9.59329 11.0169 9.63811C11.0466 9.68293 11.0624 9.7355 11.0622 9.78922V22.4499C11.0615 22.4947 11.0499 22.5386 11.0282 22.5778C11.0065 22.617 10.9755 22.6503 10.9378 22.6748C10.893 22.7045 10.8403 22.7201 10.7864 22.7198" fill="#FF6000"/>
<path d="M0.549263 5.41124L3.46511 6.65921V9.62735C3.46626 9.69923 3.48819 9.76925 3.52827 9.82906C3.56835 9.88887 3.6249 9.93594 3.69115 9.96464L5.81926 10.8956C5.86696 10.9165 5.91857 10.9272 5.97071 10.927C6.0433 10.9265 6.11423 10.9054 6.17526 10.8663C6.2273 10.8325 6.27006 10.7863 6.29966 10.732C6.32926 10.6776 6.34476 10.6167 6.34479 10.5549V7.88806L10.7818 9.78475V22.45L0.553788 18.0753V5.41124H0.549263ZM0.553788 4.86145C0.481076 4.86116 0.40902 4.87517 0.341771 4.90268C0.274522 4.93019 0.213407 4.97065 0.161939 5.02175C0.110471 5.07284 0.0696634 5.13356 0.0418722 5.2004C0.0140809 5.26725 -0.000148446 5.3389 1.16766e-06 5.41124V18.0753C0.000370443 18.1834 0.0327237 18.2891 0.0930141 18.379C0.153304 18.469 0.238866 18.5393 0.339053 18.5813L10.5682 22.9548C10.6523 22.9909 10.744 23.0056 10.8352 22.9975C10.9263 22.9895 11.0141 22.9589 11.0904 22.9087C11.1667 22.8586 11.2294 22.7905 11.2728 22.7105C11.3162 22.6304 11.339 22.5409 11.339 22.45V9.78475C11.3387 9.67675 11.3064 9.57124 11.2461 9.48144C11.1858 9.39164 11.1002 9.32155 11 9.27994L6.56292 7.38325C6.4789 7.34714 6.38715 7.33245 6.29598 7.3405C6.20481 7.34854 6.1171 7.37908 6.04078 7.42935C5.96443 7.47938 5.90175 7.54748 5.85835 7.62754C5.81496 7.7076 5.7922 7.79711 5.79213 7.88806V10.2873L4.02116 9.51267V6.65921C4.02057 6.55127 3.98812 6.44589 3.92785 6.35614C3.86757 6.2664 3.78212 6.19625 3.68211 6.1544L0.767392 4.90755C0.698325 4.87869 0.624174 4.86379 0.549263 4.86371" fill="white"/>
<path d="M21.7422 10.0951C23.4375 10.0951 23.4375 7.47546 21.7422 7.47546C20.0469 7.47546 20.0469 10.0951 21.7422 10.0951Z" fill="#FF6000"/>
<path d="M20.4912 4.83105C20.9738 5.45954 21.8383 6.37022 22.0022 8.22081C22.0723 8.94504 22.0002 9.67592 21.7897 10.3727C21.4428 11.4858 20.8856 11.9726 20.2075 12.7686C18.241 15.0925 13.796 15.6513 10.4733 13.5994L12.6037 11.7342L2.41632 10.8123L4.01325 19.2513L6.97544 16.6654C12.7958 20.1046 20.1702 18.6386 23.016 14.6136C23.6824 13.6919 24.0808 12.6055 24.1676 11.4734C24.3349 9.09327 23.0148 6.60183 20.4912 4.84005" fill="white"/>
<path d="M20.6313 4.72546C21.1048 5.34045 22.0124 6.30622 22.1762 8.21078C22.1932 8.39741 22.2011 8.58405 22.2011 8.77293C22.2039 9.33432 22.122 9.89294 21.9581 10.4301C21.5987 11.5859 21.002 12.1053 20.342 12.8867C19.1598 14.2809 17.1458 15.0454 15.0064 15.0465C13.3739 15.0499 11.7725 14.6023 10.3806 13.7536C10.3573 13.7392 10.3377 13.7197 10.3234 13.6964C10.309 13.6732 10.3004 13.6469 10.2981 13.6198C10.2959 13.5925 10.3 13.5652 10.3102 13.5398C10.3204 13.5145 10.3364 13.4918 10.3569 13.4736L12.181 11.8771L2.63216 11.0137L4.12851 18.9253L6.85561 16.5295L7.0613 16.5103C9.1808 17.7568 11.5983 18.4131 14.0605 18.4104C17.7674 18.4104 21.1681 16.9173 22.869 14.508C23.517 13.6121 23.9046 12.556 23.989 11.4555C23.9981 11.3251 24.0026 11.1947 24.0026 11.0631C24.0026 8.87749 22.73 6.61428 20.386 4.97393L20.5883 4.68835C23.0046 6.3748 24.3518 8.73583 24.3529 11.0631C24.3529 11.2025 24.3529 11.3408 24.3382 11.4802C24.2494 12.6439 23.84 13.7607 23.155 14.7081C21.3614 17.24 17.8578 18.7556 14.0593 18.7556C11.5342 18.7584 9.05491 18.085 6.88161 16.806L6.97089 16.6554L7.08391 16.7869L4.1206 19.3796C4.09737 19.4 4.06909 19.4139 4.03868 19.4199C4.00827 19.4259 3.97682 19.4237 3.94752 19.4136C3.91822 19.4036 3.89211 19.386 3.87189 19.3626C3.85167 19.3392 3.83804 19.3109 3.8324 19.2806L2.2366 10.8405C2.23166 10.8141 2.23286 10.7868 2.24011 10.7609C2.24735 10.735 2.26045 10.7111 2.27842 10.691C2.29663 10.6709 2.3193 10.6554 2.34461 10.6457C2.36993 10.6359 2.39719 10.6322 2.42421 10.6348L12.6116 11.5556C12.6458 11.5588 12.6783 11.5718 12.7052 11.5931C12.732 11.6145 12.752 11.6432 12.7627 11.6756C12.7734 11.7081 12.7743 11.743 12.7653 11.776C12.7563 11.809 12.7379 11.8387 12.7122 11.8614L10.5852 13.73L10.4722 13.5995L10.5648 13.4511C11.9013 14.2645 13.4386 14.6926 15.0053 14.6879C17.0633 14.6879 18.9812 13.9458 20.0718 12.6529C20.7579 11.8423 21.2868 11.3892 21.6213 10.3177C21.7744 9.81396 21.8506 9.2902 21.8474 8.76393C21.8474 8.58742 21.8394 8.40978 21.8236 8.23327C21.6609 6.43439 20.8404 5.5743 20.3544 4.93458L20.6335 4.72209L20.6313 4.72546Z" fill="url(#paint0_linear_7870_121983)"/>
<defs>
<linearGradient id="paint0_linear_7870_121983" x1="19.4049" y1="19.2933" x2="4.94176" y2="7.40463" gradientUnits="userSpaceOnUse">
<stop stop-color="#FF6800"/>
<stop offset="1" stop-color="#FF6000"/>
</linearGradient>
</defs>
</svg>
